<svg width="1234" height="1234" xmlns="http://www.w3.org/2000/svg" xmlns:xlink="http://www.w3.org/1999/xlink" overflow="hidden"><defs><clipPath id="clip0"><rect x="3544" y="3322" width="1234" height="1234"/></clipPath><clipPath id="clip1"><rect x="3679" y="3471" width="948" height="949"/></clipPath><clipPath id="clip2"><rect x="3679" y="3471" width="948" height="949"/></clipPath><clipPath id="clip3"><rect x="3679" y="3471" width="948" height="949"/></clipPath></defs><g clip-path="url(#clip0)" transform="translate(-3544 -3322)"><g clip-path="url(#clip1)"><g clip-path="url(#clip2)"><g clip-path="url(#clip3)"><path d="M168.703 724.655C241.147 812.787 351.009 869 474 869 596.991 869 706.852 812.787 779.295 724.655M168.703 724.655C112.651 656.462 79 569.163 79 474 79 255.847 255.847 79 474 79 692.15 79 869 255.847 869 474 869 569.163 835.35 656.462 779.295 724.655M168.703 724.655C168.703 724.655 256.75 612.25 474 612.25 691.25 612.25 779.295 724.655 779.295 724.655" stroke="#19284D" stroke-width="45.9636" stroke-linecap="round" stroke-linejoin="round" fill="none" transform="matrix(1 0 0 1 3679 3472)"/><path d="M474 474C539.447 474 592.5 420.947 592.5 355.5 592.5 290.054 539.447 237 474 237 408.552 237 355.5 290.054 355.5 355.5 355.5 420.947 408.552 474 474 474Z" stroke="#19284D" stroke-width="45.9636" stroke-linecap="round" stroke-linejoin="round" fill="none" transform="matrix(1 0 0 1 3679 3472)"/></g></g></g></g></svg>